# xmcd CD database file
#
# Track frame offsets:
#	300
#	10961
#	28351
#	53429
#	66235
#	89592
#	106665
#	139017
#	168767
#	189250
#	202708
#	221508
#	230802
#	256339
#	272855
#	293165
#	319190
#
# Disc length: 4421 seconds
#
# Revision: 0
# Processed by: cddbd v1.5.1PL0 Copyright (c) Steve Scherf et al.
# Submitted via: CDex 1.51
#
DISCID=f2114111
DTITLE=Various Artist - Forum West
DYEAR=2004
DGENRE=Jazz
TTITLE0=Wolfgang Lauth Sextet - Intrada
TTITLE1=Hans Koller Ensemble - Mingus Privat
TTITLE2=Joe Haider Septet - Straight Out
TTITLE3=Hans Koller Ensemble - Casa Loma
TTITLE4=Joe Haider and His Orchestra - Hymnus for Che
TTITLE5=Wolfgang Dauner Trio - Freefall
TTITLE6=Rolf and Joachim Kuhn Quartet - Arabia Rock
TTITLE7=Ronnie Ross and His Band - Tranquology
TTITLE8=Hans Koller Ensemble - Saint John Perse
TTITLE9=Ronnie Ross and His Band - Last of the Wine
TTITLE10=Joe Nay and Fritz Pauner - Beta Draco
TTITLE11=Hans Koller Ensemble - Zoot
TTITLE12=Wolfgang Dauner Trio - Ten Notices
TTITLE13=Fritz Pauer Trio - Red Roof
TTITLE14=Hans Koller Ensemble - Call Me Eric
TTITLE15=Joe Haider Septet - Eternal Oil Lamp
TTITLE16=Hans Koller Ensemble - Lucky Tom
EXTD=YEAR: 2004
EXTT0=
EXTT1=
EXTT2=
EXTT3=
EXTT4=
EXTT5=
EXTT6=
EXTT7=
EXTT8=
EXTT9=
EXTT10=
EXTT11=
EXTT12=
EXTT13=
EXTT14=
EXTT15=
EXTT16=
PLAYORDER=
